<?xml version="1.0" encoding="utf-8"?>
<svg viewBox="162.2206 25.2612 500.0004 530.0176" xmlns="http://www.w3.org/2000/svg">
  <path d="M 413.661 555.272 C 405.45 555.243 397.274 554.185 389.323 552.122 L 387.755 551.689 L 386.303 550.961 C 333.759 524.615 289.431 489.82 254.55 447.534 C 225.673 412.329 203.162 372.351 188.025 329.408 C 169.923 277.992 161.214 223.743 162.313 169.245 C 162.338 168.101 162.355 167.215 162.355 166.609 C 162.355 140.118 177.06 116.872 199.815 107.391 C 217.234 100.132 375.375 35.179 386.803 30.485 C 408.32 19.702 431.279 28.702 434.95 30.275 C 443.19 33.644 589.382 93.44 620.976 108.482 C 653.534 123.988 662.221 151.84 662.221 165.852 C 662.221 229.293 651.234 288.585 629.562 342.079 C 612.062 385.377 587.259 425.352 556.232 460.261 C 496.37 527.625 436.493 551.505 435.914 551.719 C 428.758 554.18 421.23 555.381 413.661 555.272 Z M 399.581 520.391 C 404.773 521.554 416.723 523.3 424.513 520.459 C 434.41 516.85 484.528 490.861 531.361 438.157 C 596.068 365.341 628.898 273.801 628.948 166.085 C 628.831 163.904 627.283 148.339 606.671 138.525 C 575.69 123.772 423.736 61.639 422.204 61.012 L 421.786 60.834 C 418.601 59.5 408.466 56.69 401.48 60.35 L 400.082 61.002 C 398.386 61.698 230.519 130.644 212.614 138.104 C 200.091 143.323 195.631 156.251 195.631 166.609 C 195.631 167.365 195.61 168.465 195.582 169.89 C 194.152 243.592 211.208 424.953 399.581 520.391 Z" fill="#3f3d56" transform="matrix(1, 0, 0, 1, 0, 5.684341886080802e-14)" />
  <path d="M 393.76 45.613 C 393.76 45.613 224.365 115.184 206.218 122.749 C 188.069 130.311 178.992 148.46 178.992 166.609 C 178.992 184.759 165.381 421.583 393.76 536.089 C 393.76 536.089 414.489 541.823 430.214 536.089 C 445.941 530.353 645.583 433.555 645.583 165.852 C 645.583 165.852 645.583 138.629 613.822 123.503 C 582.06 108.38 428.5 45.613 428.5 45.613 C 428.5 45.613 409.641 37.294 393.76 45.613 Z" fill="#000000" transform="matrix(1, 0, 0, 1, 0, 5.684341886080802e-14)" />
  <path d="M 411.91 100.061 L 411.91 471.207 C 411.91 471.207 241.002 388.939 242.515 172.659 L 411.91 100.061 Z" opacity="0.1" transform="matrix(1, 0, 0, 1, 0, 5.684341886080802e-14)" />
  <polygon points="414.139 366.809 359.698 296.805 391.358 272.184 417.136 305.329 504.22 213.399 533.341 240.989 414.139 366.809" fill="#fff" transform="matrix(1, 0, 0, 1, 0, 5.684341886080802e-14)" />
</svg>